<mxfile host="app.diagrams.net" modified="2022-04-27T13:00:29.084Z" agent="5.0 (Windows NT 6.3; Win64; x64) AppleWebKit/537.36 (KHTML, like Gecko) Chrome/100.0.4896.127 Safari/537.36" etag="s1FwqRitdA4H2e6oLaBM" version="17.4.6" type="github">
  <diagram id="C5RBs43oDa-KdzZeNtuy" name="Page-1">
    <mxGraphModel dx="868" dy="488" grid="1" gridSize="10" guides="1" tooltips="1" connect="1" arrows="1" fold="1" page="1" pageScale="1" pageWidth="827" pageHeight="1169" background="#283618" math="0" shadow="0">
      <root>
        <mxCell id="WIyWlLk6GJQsqaUBKTNV-0" />
        <mxCell id="WIyWlLk6GJQsqaUBKTNV-1" parent="WIyWlLk6GJQsqaUBKTNV-0" />
        <mxCell id="DRlufBYP9j4pwEvmyXll-3" value="" style="edgeStyle=orthogonalEdgeStyle;curved=0;rounded=1;sketch=0;orthogonalLoop=1;jettySize=auto;html=1;fontColor=#FEFAE0;strokeColor=#DDA15E;fillColor=#BC6C25;" edge="1" parent="WIyWlLk6GJQsqaUBKTNV-1" source="DRlufBYP9j4pwEvmyXll-1" target="DRlufBYP9j4pwEvmyXll-2">
          <mxGeometry relative="1" as="geometry" />
        </mxCell>
        <mxCell id="DRlufBYP9j4pwEvmyXll-1" value="Start" style="rounded=1;whiteSpace=wrap;html=1;sketch=0;fontColor=#FEFAE0;strokeColor=#DDA15E;fillColor=#BC6C25;" vertex="1" parent="WIyWlLk6GJQsqaUBKTNV-1">
          <mxGeometry x="350" y="10" width="120" height="60" as="geometry" />
        </mxCell>
        <mxCell id="DRlufBYP9j4pwEvmyXll-5" value="&lt;font color=&quot;#ffffff&quot; style=&quot;background-color: rgb(0 , 102 , 0)&quot;&gt;under18.5&lt;/font&gt;" style="edgeStyle=orthogonalEdgeStyle;curved=0;rounded=1;sketch=0;orthogonalLoop=1;jettySize=auto;html=1;fontColor=#FEFAE0;strokeColor=#DDA15E;fillColor=#BC6C25;" edge="1" parent="WIyWlLk6GJQsqaUBKTNV-1" source="DRlufBYP9j4pwEvmyXll-2" target="DRlufBYP9j4pwEvmyXll-4">
          <mxGeometry x="0.6364" relative="1" as="geometry">
            <mxPoint as="offset" />
          </mxGeometry>
        </mxCell>
        <mxCell id="DRlufBYP9j4pwEvmyXll-7" value="18-25" style="edgeStyle=orthogonalEdgeStyle;curved=0;rounded=1;sketch=0;orthogonalLoop=1;jettySize=auto;html=1;labelBackgroundColor=#006600;fontColor=#FFFFFF;strokeColor=#DDA15E;fillColor=#BC6C25;" edge="1" parent="WIyWlLk6GJQsqaUBKTNV-1" source="DRlufBYP9j4pwEvmyXll-2" target="DRlufBYP9j4pwEvmyXll-6">
          <mxGeometry x="0.5" relative="1" as="geometry">
            <mxPoint as="offset" />
          </mxGeometry>
        </mxCell>
        <mxCell id="DRlufBYP9j4pwEvmyXll-9" value="25-30" style="edgeStyle=orthogonalEdgeStyle;curved=0;rounded=1;sketch=0;orthogonalLoop=1;jettySize=auto;html=1;labelBackgroundColor=#006600;fontColor=#FFFFFF;strokeColor=#DDA15E;fillColor=#BC6C25;" edge="1" parent="WIyWlLk6GJQsqaUBKTNV-1" source="DRlufBYP9j4pwEvmyXll-2" target="DRlufBYP9j4pwEvmyXll-8">
          <mxGeometry relative="1" as="geometry" />
        </mxCell>
        <mxCell id="DRlufBYP9j4pwEvmyXll-11" value="over 35" style="edgeStyle=orthogonalEdgeStyle;curved=0;rounded=1;sketch=0;orthogonalLoop=1;jettySize=auto;html=1;labelBackgroundColor=#006600;fontColor=#FFFFFF;strokeColor=#DDA15E;fillColor=#BC6C25;" edge="1" parent="WIyWlLk6GJQsqaUBKTNV-1" source="DRlufBYP9j4pwEvmyXll-2" target="DRlufBYP9j4pwEvmyXll-10">
          <mxGeometry x="0.7391" relative="1" as="geometry">
            <mxPoint as="offset" />
          </mxGeometry>
        </mxCell>
        <mxCell id="DRlufBYP9j4pwEvmyXll-13" value="30-35" style="edgeStyle=orthogonalEdgeStyle;curved=0;rounded=1;sketch=0;orthogonalLoop=1;jettySize=auto;html=1;labelBackgroundColor=#006600;fontColor=#FFFFFF;strokeColor=#DDA15E;fillColor=#BC6C25;" edge="1" parent="WIyWlLk6GJQsqaUBKTNV-1" source="DRlufBYP9j4pwEvmyXll-2" target="DRlufBYP9j4pwEvmyXll-12">
          <mxGeometry x="0.6154" relative="1" as="geometry">
            <mxPoint as="offset" />
          </mxGeometry>
        </mxCell>
        <mxCell id="DRlufBYP9j4pwEvmyXll-2" value="Weight" style="rhombus;whiteSpace=wrap;html=1;fillColor=#BC6C25;strokeColor=#DDA15E;fontColor=#FEFAE0;rounded=1;sketch=0;" vertex="1" parent="WIyWlLk6GJQsqaUBKTNV-1">
          <mxGeometry x="370" y="90" width="80" height="80" as="geometry" />
        </mxCell>
        <mxCell id="DRlufBYP9j4pwEvmyXll-4" value="underweight" style="whiteSpace=wrap;html=1;fillColor=#BC6C25;strokeColor=#DDA15E;fontColor=#FEFAE0;rounded=1;sketch=0;" vertex="1" parent="WIyWlLk6GJQsqaUBKTNV-1">
          <mxGeometry x="30" y="100" width="120" height="60" as="geometry" />
        </mxCell>
        <mxCell id="DRlufBYP9j4pwEvmyXll-6" value="normal weight" style="whiteSpace=wrap;html=1;fillColor=#BC6C25;strokeColor=#DDA15E;fontColor=#FEFAE0;rounded=1;sketch=0;" vertex="1" parent="WIyWlLk6GJQsqaUBKTNV-1">
          <mxGeometry x="160" y="220" width="120" height="60" as="geometry" />
        </mxCell>
        <mxCell id="DRlufBYP9j4pwEvmyXll-8" value="overweight" style="whiteSpace=wrap;html=1;fillColor=#BC6C25;strokeColor=#DDA15E;fontColor=#FEFAE0;rounded=1;sketch=0;" vertex="1" parent="WIyWlLk6GJQsqaUBKTNV-1">
          <mxGeometry x="350" y="260" width="120" height="60" as="geometry" />
        </mxCell>
        <mxCell id="DRlufBYP9j4pwEvmyXll-10" value="clinically obese" style="whiteSpace=wrap;html=1;fillColor=#BC6C25;strokeColor=#DDA15E;fontColor=#FEFAE0;rounded=1;sketch=0;" vertex="1" parent="WIyWlLk6GJQsqaUBKTNV-1">
          <mxGeometry x="680" y="100" width="120" height="60" as="geometry" />
        </mxCell>
        <mxCell id="DRlufBYP9j4pwEvmyXll-12" value="obese" style="whiteSpace=wrap;html=1;fillColor=#BC6C25;strokeColor=#DDA15E;fontColor=#FEFAE0;rounded=1;sketch=0;" vertex="1" parent="WIyWlLk6GJQsqaUBKTNV-1">
          <mxGeometry x="560" y="220" width="120" height="60" as="geometry" />
        </mxCell>
      </root>
    </mxGraphModel>
  </diagram>
</mxfile>
